<svg viewBox="0 0 284.776 270.357">
    <path id="shape_x5F__x5F_shadow" opacity="0.1" fill="#231F20" d="M271.688,245.343c0,5.586-55.78,4.873-124.591,4.873 c-68.81,0-124.591,0.713-124.591-4.873c0-5.587,55.781-10.116,124.591-10.116C215.907,235.227,271.688,239.756,271.688,245.343z"/>
    <g id="shape_x5F__x5F_figure">
        <g>
            <g>
                <circle fill="#27AAE1" cx="145.514" cy="107.828" r="45.345"/>
                <g>
                    <circle fill="#27AAE1" cx="132.68" cy="70.546" r="42.984"/>
                    <circle fill="#27AAE1" cx="176.334" cy="67.767" r="23.762"/>
                    <circle fill="#27AAE1" cx="116.701" cy="101.711" r="43.863"/>
                    <circle fill="#27AAE1" cx="182.475" cy="104.925" r="40.485"/>
                </g>
            </g>
            <g>
                <g opacity="0.2">
                    <polygon fill="#231F20" points="168.459,56.442 168.483,56.431 114.075,56.431 114.075,141.401 193.232,141.785 183.271,71.348
                                        "/>
                </g>
                <g>
                    <polygon fill="#F1F2F2" points="165.438,55.425 165.461,55.414 111.055,55.414 111.055,140.384 181.652,140.384 181.652,71.639
                                        "/>
                </g>
                <g>
                    <rect x="115.121" y="61.964" fill="#E6E7E8" width="53.931" height="0.928"/>
                    <rect x="115.121" y="70.32" fill="#E6E7E8" width="62.675" height="0.929"/>
                    <rect x="115.121" y="78.677" fill="#E6E7E8" width="62.675" height="0.928"/>
                    <rect x="115.121" y="87.033" fill="#E6E7E8" width="62.675" height="0.928"/>
                    <rect x="115.121" y="95.39" fill="#E6E7E8" width="62.675" height="0.929"/>
                    <rect x="115.121" y="103.746" fill="#E6E7E8" width="62.675" height="0.929"/>
                    <rect x="115.121" y="112.103" fill="#E6E7E8" width="62.675" height="0.929"/>
                    <rect x="115.121" y="120.46" fill="#E6E7E8" width="62.675" height="0.928"/>
                    <rect x="115.121" y="128.816" fill="#E6E7E8" width="62.675" height="0.929"/>
                    <rect x="115.121" y="137.173" fill="#E6E7E8" width="62.675" height="0.928"/>
                </g>
                <polygon fill="#FFFFFF" points="181.659,71.646 165.438,71.646 165.438,55.425 			"/>
                <g>
                    <g>
                        <g>
                            <circle fill="#FFFFFF" cx="130.752" cy="85.601" r="9.931"/>
                            <circle fill="#414042" cx="130.752" cy="85.601" r="7.363"/>
                            <circle fill="#FFFFFF" cx="128.526" cy="80.521" r="2.511"/>
                            <circle fill="#FFFFFF" cx="126.007" cy="85.764" r="1.248"/>
                            <circle fill="#FFFFFF" cx="128.765" cy="89.146" r="1.904"/>
                            <path fill="#FFFFFF" d="M137.109,86.799c-2.199,0.342-2.476,0.619-2.817,2.817c-0.341-2.199-0.618-2.475-2.817-2.817
                                c2.199-0.341,2.476-0.618,2.817-2.816C134.633,86.181,134.91,86.458,137.109,86.799z"/>
                        </g>
                        <g>
                            <circle fill="#FFFFFF" cx="162.628" cy="85.601" r="9.932"/>
                            <circle fill="#414042" cx="162.628" cy="85.601" r="7.363"/>
                            <circle fill="#FFFFFF" cx="160.401" cy="80.521" r="2.511"/>
                            <circle fill="#FFFFFF" cx="157.882" cy="85.764" r="1.248"/>
                            <circle fill="#FFFFFF" cx="160.641" cy="89.146" r="1.905"/>
                            <path fill="#FFFFFF" d="M168.985,86.799c-2.2,0.342-2.477,0.619-2.817,2.817c-0.342-2.199-0.619-2.475-2.817-2.817
                                c2.199-0.341,2.476-0.618,2.817-2.816C166.508,86.181,166.785,86.458,168.985,86.799z"/>
                        </g>
                    </g>
                    <g>
                        <g>
                            <path fill="#414042" d="M159.69,113.944c-0.818,0-1.479-0.663-1.479-1.48c0-6.352-5.169-11.519-11.52-11.519
                                c-6.352,0-11.52,5.167-11.52,11.519c0,0.817-0.664,1.48-1.48,1.48c-0.817,0-1.48-0.663-1.48-1.48
                                c0-7.984,6.496-14.48,14.48-14.48s14.479,6.496,14.479,14.48C161.17,113.281,160.508,113.944,159.69,113.944z"/>
                        </g>
                    </g>
                </g>
            </g>
        </g>
        <g>
            <g>
                <g>
                    <polygon fill="#B2875D" points="229.498,244.664 63.083,244.664 63.092,116.414 229.491,116.414 				"/>
                </g>
                <g>
                    <g opacity="0.1">
                        <rect x="63.176" y="170.075" fill="#FFFFFF" width="16.906" height="9.271"/>
                    </g>
                    <g opacity="0.1">
                        <rect x="63.176" y="191.671" fill="#FFFFFF" width="16.906" height="9.273"/>
                    </g>
                    <g opacity="0.1">
                        <rect x="63.176" y="213.269" fill="#FFFFFF" width="16.906" height="9.272"/>
                    </g>
                    <g opacity="0.1">
                        <rect x="212.562" y="170.075" fill="#FFFFFF" width="16.905" height="9.271"/>
                    </g>
                    <g opacity="0.1">
                        <rect x="212.562" y="191.671" fill="#FFFFFF" width="16.905" height="9.273"/>
                    </g>
                    <g opacity="0.1">
                        <rect x="212.562" y="213.269" fill="#FFFFFF" width="16.905" height="9.272"/>
                    </g>
                </g>
            </g>
            <g>
                <g>
                    <polygon fill="#C49A6C" points="261.684,150.72 227.452,118.569 229.491,116.414 263.711,148.562 				"/>
                </g>
                <g>
                    <polygon fill="#C49A6C" points="30.906,150.72 65.137,118.569 63.092,116.414 28.879,148.562 				"/>
                </g>
                <g>
                    <polygon fill="#C49A6C" points="240.6,159.055 51.981,159.055 63.092,116.414 229.491,116.414 				"/>
                </g>
            </g>
        </g>
    </g>
</svg>
