<svg xmlns="http://www.w3.org/2000/svg" width="100%" height="100%" viewBox="0 0 195 216" version="1.1" xml:space="preserve" style="fill-rule:evenodd;clip-rule:evenodd;stroke-linejoin:round;stroke-miterlimit:2;">
    <path d="M110.159,0.96C109.702,1.085 109.052,1.488 108.722,1.852C107.614,3.069 106.994,3.345 103.199,4.311C102.739,4.428 101.645,4.64 100.799,4.777C99.954,4.914 98.833,5.138 98.342,5.269C97.496,5.494 97.439,5.565 97.439,6.4C97.439,7.429 97.552,7.636 98.399,8.161C99.236,8.679 102.514,9.223 110.651,10.192C112.571,10.421 114.166,10.642 114.216,10.686C114.266,10.729 114.386,11.646 114.479,12.697C114.611,14.183 114.764,14.734 115.142,15.086C115.631,15.54 115.633,15.68 115.554,40.937C115.51,54.905 115.458,85.085 115.439,108.011L115.405,149.691L114.708,149.668C114.319,149.655 113.859,149.777 113.668,149.944C113.337,150.232 112.914,150.163 109.211,149.22C108.742,149.101 107.668,148.852 106.799,148.662C105.947,148.476 104.468,148.142 103.554,147.931C102.639,147.719 101.436,147.448 100.914,147.336C100.391,147.224 99.245,146.959 98.399,146.754C97.539,146.545 95.611,146.101 94.079,145.759C92.548,145.418 90.941,145.045 90.479,144.925C90.025,144.807 88.822,144.531 87.839,144.32C84.571,143.617 82.929,143.245 82.079,143.016C81.616,142.891 80.422,142.612 79.439,142.399C78.457,142.186 77.263,141.918 76.799,141.805C76.336,141.692 75.142,141.424 74.159,141.211C73.177,140.998 71.983,140.729 71.52,140.616C71.059,140.504 69.908,140.228 68.994,140.011C68.08,139.793 66.876,139.507 66.354,139.382C65.828,139.257 63.657,138.771 61.554,138.308C59.451,137.845 57.28,137.364 56.754,137.245C56.232,137.127 55.085,136.866 54.24,136.674C53.381,136.478 51.908,136.151 50.948,135.942C49.485,135.625 49.056,135.41 48.228,134.582C47.565,133.919 47.093,133.64 46.777,133.725C46.525,133.793 46.311,133.808 46.314,133.759C46.321,133.634 50.56,130.38 53.645,128.13C54.994,127.147 56.715,125.809 57.44,125.181C60.818,122.25 63.127,116.274 62.453,112.205C61.961,109.239 60.571,108.311 56.685,108.356C54.114,108.386 53.836,108.594 52.238,111.679C50.272,115.474 49.701,116.311 47.713,118.308C45.652,120.379 44,121.437 37.92,124.578C36.274,125.428 33.793,126.849 32.411,127.732C29.587,129.537 29.805,129.5 25.028,128.971C21.394,128.568 20.748,128.701 20.431,129.919C20.195,130.828 20.514,132.959 21.037,133.965C21.274,134.422 21.323,134.731 21.166,134.788C21.027,134.838 19.988,135.519 18.846,136.308C17.703,137.097 16.659,137.665 16.514,137.576C16.361,137.483 16.321,137.531 16.42,137.691C16.718,138.177 10.674,141.717 8.023,142.608L6.263,143.199L3.908,142.502C2.606,142.116 1.238,141.697 0.846,141.563C0.069,141.297 -0.123,141.367 0.059,141.851C0.171,142.148 2.354,143.321 4.617,144.298C6.743,145.216 7.156,145.379 8.526,145.838C11.897,146.966 13.417,147.199 17.394,147.199C20.983,147.199 21.376,147.154 23.406,146.506C25.93,145.701 28,144.636 33.211,141.464L37.005,139.154L39.908,139.852C43.03,140.603 48.045,141.781 51.36,142.542C53.874,143.12 55.657,143.543 58.445,144.227C59.634,144.518 61.023,144.84 61.554,144.948C62.086,145.056 63.211,145.315 64.08,145.531C64.948,145.746 66.124,146.016 66.72,146.136C67.316,146.257 68.434,146.521 69.234,146.731C70.034,146.94 70.943,147.164 71.28,147.234C71.614,147.303 72.959,147.615 74.285,147.931C75.611,148.246 77.442,148.671 78.377,148.88C81.014,149.469 81.782,149.646 84.479,150.289C87.817,151.085 90.98,151.829 92.891,152.266C95.359,152.832 97.488,153.334 98.399,153.567C98.863,153.685 100.434,154.065 101.874,154.409C105.828,155.352 109.228,156.204 110.056,156.459C110.468,156.586 110.938,156.685 111.131,156.685C111.319,156.685 111.721,156.948 112.022,157.268C112.329,157.593 112.914,157.921 113.348,158.011C113.773,158.098 114.559,158.307 115.085,158.472C116.27,158.843 117.119,159.075 121.325,160.173C123.176,160.657 124.952,161.138 125.279,161.245C125.933,161.458 127.793,161.908 128.456,162.014C128.87,162.079 128.889,162.056 124.335,166.902C121.61,169.801 119.1,172.616 114.612,177.805C112.378,180.388 109.857,183.239 108.994,184.159C104.986,188.433 94.35,198.843 91.428,201.352C87.839,204.433 87.203,205.16 86.03,207.519C84.554,210.49 83.959,212.947 84.482,213.919C84.644,214.222 85.222,214.657 85.771,214.89C86.319,215.124 86.98,215.405 87.245,215.519C87.512,215.633 88.548,215.81 89.577,215.917C92.667,216.237 95.474,215.664 103.611,213.047C105.576,212.414 109.423,211.698 110.765,211.714C111.24,211.72 113.416,211.532 115.908,211.27C123.131,210.51 132.464,208.443 138.833,206.195C140.164,205.725 142.353,204.952 143.748,204.459C147.477,203.142 152.822,200.685 156.89,198.417C161.576,195.806 165.829,193.256 167.747,191.906C170.416,190.03 169.759,190.51 175.862,185.982C178.559,183.981 180.871,182.425 181.016,182.513C181.153,182.597 181.208,182.564 181.13,182.445C181.049,182.319 181.805,181.578 182.81,180.797C184.982,179.112 188.047,176.466 189.759,174.798C191.862,172.749 193.35,169.233 194.292,164.091C194.659,162.086 194.682,161.393 194.453,159.153C193.927,153.988 191.238,147.634 187.738,143.291C184,138.651 182.195,137.279 177.965,135.866C174.293,134.639 171.336,134.055 167.267,133.751L165.233,133.599L161.519,137.108C159.485,139.03 156.792,141.402 155.565,142.354C154.33,143.311 152.873,144.442 152.319,144.872C150.329,146.419 148.273,147.806 145.142,149.717C143.405,150.778 141.556,151.926 141.062,152.251L140.159,152.845L140.273,148.228C140.336,145.689 140.447,140.205 140.519,136.045C140.676,126.948 140.833,118.731 140.997,110.971C141.064,107.807 141.171,102.342 141.233,98.845C141.296,95.348 141.406,89.668 141.477,86.24C141.706,75.245 141.828,69.135 141.967,61.76C142.041,57.806 142.148,52.453 142.205,49.886C142.261,47.317 142.38,40.994 142.468,35.851C142.556,30.709 142.648,25.786 142.673,24.926C142.698,24.066 142.74,22.251 142.765,20.903C142.809,18.503 142.824,18.446 143.37,18.446C143.896,18.446 143.941,18.331 144.094,16.594C144.34,13.806 144.344,13.782 144.593,13.623C144.731,13.535 145.599,13.331 146.513,13.17C149.165,12.705 151.39,12.001 153.348,11.009C155.359,9.991 155.664,9.627 155.887,7.977C156.017,7.017 155.958,6.701 155.553,6.183C155.119,5.628 154.788,5.522 152.708,5.28C151.411,5.129 143.885,4.247 135.953,3.316C114.239,0.769 113.489,0.687 112.205,0.71C111.542,0.722 110.616,0.835 110.159,0.96Z" style="fill-rule:nonzero;"/>
</svg>