<svg width="54" height="49" viewBox="0 0 54 49" fill="none" xmlns="http://www.w3.org/2000/svg">
<g id="headphone">
<path id="Path" d="M6.8028 34.6243V20.4359C6.8028 19.596 7.02718 18.9807 6.99725 19.0627C6.86161 19.0735 6.72702 19.0885 6.59348 19.1074V8.61231C6.59348 7.72189 5.89059 7 5.0236 7C4.15661 7 3.45373 7.72189 3.45373 8.61231V20.3979C1.37772 21.9117 0 24.5422 0 27.5301C0 32.0083 3.09266 35.6853 6.99725 35.9976C7.0141 36.0437 6.8028 35.4325 6.8028 34.6243Z" />
<path id="Path_2" d="M30.0388 39.3681H23.2831C21.1012 39.3681 19.245 40.7432 18.5826 42.647H18.2164C15.9166 42.647 13.964 41.1819 13.2936 39.1631C11.0903 39.1631 10.7772 39.2061 10 39C10.6744 42.8112 14.1008 45.721 18.2164 45.721H18.5826C19.245 47.6249 21.1012 49 23.2831 49H30.0388C32.7744 49 35 46.8396 35 44.184C35 41.5285 32.7744 39.3681 30.0388 39.3681Z" />
<path id="Path_3" d="M14.1923 15.8295C15.2714 8.67721 20.8428 3.29781 27.5 3.29781C34.1572 3.29781 39.7286 8.67721 40.8077 15.8295C42.936 15.8295 43.2418 15.7853 44 16C42.949 6.92189 35.9323 0 27.5 0C19.0677 0 12.051 6.92189 11 16C11.756 15.786 12.0643 15.8295 14.1923 15.8295Z" />
<path id="Path_4" d="M42.3588 19H38.6412C37.7363 19 37 19.7061 37 20.5741V34.4259C37 35.2939 37.7363 36 38.6412 36H42.3588C43.2637 36 44 35.2939 44 34.4259V20.5741C44 19.7061 43.2637 19 42.3588 19Z" />
<path id="Path_5" d="M11.6406 36H15.3594C16.264 36 17 35.2939 17 34.4259V20.5741C17 19.7061 16.264 19 15.3594 19H11.6406C10.736 19 10 19.7061 10 20.5741V34.4259C10 35.2939 10.736 36 11.6406 36Z" />
<path id="Path_6" d="M47.0018 19.0002C46.9991 18.989 47.1963 19.5945 47.1963 20.3785V34.6189C47.1963 35.4635 46.9781 36.0458 47.0018 35.9972C50.9069 35.6838 54 31.9932 54 27.4987C54 23.0041 50.9069 19.3135 47.0018 19.0002Z" />
</g>
</svg>
