<svg width="33" height="86" viewBox="0 0 33 86" fill="none" xmlns="http://www.w3.org/2000/svg">
<path fill-rule="evenodd" clip-rule="evenodd" d="M32.9392 34.2941C32.8206 36.8742 32.5533 39.308 32.3929 40.8997H28.6706C28.623 39.8671 28.4335 38.5958 28.2157 37.6104C28.1039 37.1177 27.9843 36.6952 27.8706 36.4065C27.4429 35.3152 26.9539 28.0543 27.2008 26.9678L27.2086 26.9072C27.3894 25.7928 26.3366 21.7952 26.1266 19.8291V19.8205C26.1111 19.6944 26.0984 19.5722 26.0936 19.4634C25.3664 20.6712 24.5683 27.5702 24.5683 28.5384C24.5683 29.0792 25.1108 32.4897 25.6172 35.7425V35.7502C25.835 37.1465 26.044 38.514 26.2044 39.6092C26.3366 40.5407 26.4309 41.274 26.464 41.6734C26.6 43.3537 25.974 54.0578 25.4073 58.475C25.3091 59.2468 25.2099 59.8252 25.1185 60.1302C24.511 62.1848 25.1555 67.8925 25.243 68.9049C25.3791 70.4764 25.2926 74.3758 24.9387 77.0127C24.9018 77.2985 24.8405 77.8672 24.7744 78.6082C24.5897 80.6676 24.3642 84.0051 24.441 86H20.1034C20.0665 85.6103 20.0081 85.2831 19.9255 85.0636C19.8069 84.7422 19.6135 83.7808 19.3928 82.5404C18.8212 79.3165 18.0766 74.2045 18.0309 73.5049C17.9706 72.5368 18.2496 67.4152 18.4839 65.5761C18.7804 63.2896 17.4184 60.8549 17.3582 56.9227C17.3319 55.4099 17.4184 52.2631 17.3582 51.4162L17.3533 51.3758C17.2717 50.3826 16.5017 44.2573 16.5017 43.1824C16.5017 43.2844 16.493 43.4355 16.4813 43.6183L16.4784 43.6635C16.3501 45.4862 15.7007 50.6511 15.6473 51.4162C15.585 52.2631 15.6667 55.4099 15.6473 56.9227C15.585 60.8549 14.2241 63.2896 14.5167 65.5761C14.7549 67.4152 15.0348 72.5368 14.9726 73.5049C14.9279 74.2045 14.1823 79.3165 13.6116 82.5404C13.39 83.7808 13.1966 84.7422 13.077 85.0636C12.9953 85.2831 12.937 85.6103 12.9001 86H8.55958C8.6354 84.0051 8.41473 80.6676 8.23003 78.613C8.16393 77.8711 8.10171 77.2985 8.06574 77.0127C7.71189 74.3758 7.62538 70.4764 7.76147 68.9049C7.84702 67.8925 8.49347 62.1848 7.88104 60.1302C7.79063 59.8252 7.6944 59.2468 7.59621 58.4769C7.02947 54.0665 6.39954 43.3537 6.53661 41.6734C6.56869 41.274 6.66396 40.5407 6.79519 39.614C6.95073 38.514 7.16557 37.1504 7.37846 35.755C7.88882 32.4984 8.43126 29.0792 8.43126 28.5384L8.42737 28.4614C8.39821 27.3094 7.67884 21.187 6.99739 19.6376L6.90601 19.4634C6.90115 19.5847 6.88851 19.7233 6.87393 19.8686C6.65035 21.8885 5.57422 25.9506 5.80461 26.9678C6.04569 28.0543 5.55672 35.3152 5.12996 36.4065C5.01817 36.6952 4.89957 37.1177 4.78875 37.6152C4.571 38.5997 4.38241 39.8671 4.33186 40.8997H0.611581C0.451182 39.308 0.179962 36.8694 0.0613646 34.2941C-0.0912571 31.0058 -0.00473905 27.4846 0.849748 25.2096C1.19971 24.2896 0.978067 17.0739 1.03931 16.4667C0.916824 15.8604 0.792394 10.4434 2.50234 8.68902C3.50653 7.66316 4.61571 6.94717 5.6306 6.42943C6.99253 5.73462 8.18337 5.40838 8.71123 5.20051C8.86288 5.13989 9.06021 5.04269 9.28672 4.92047C10.4377 4.29302 12.3528 3.01888 12.7115 2.81871C12.834 2.75038 12.8758 2.35678 12.8758 1.88427C12.8758 1.06147 12.7562 0.00384938 12.7562 0.00384938H16.1411L16.8585 0H20.292L20.2473 0.00384938C20.2473 0.00384938 20.1277 1.05762 20.1277 1.87946C20.1277 2.35678 20.1695 2.75038 20.292 2.81871C20.6507 3.01888 22.5629 4.28917 23.7138 4.91566C23.9433 5.04269 24.1396 5.13989 24.2932 5.20051C24.8191 5.40838 26.0071 5.73462 27.369 6.42654C28.3848 6.94236 29.4979 7.66316 30.5002 8.68902C32.2111 10.4434 32.0876 15.8604 31.9642 16.4667C32.0264 17.0739 31.8047 24.2896 32.1498 25.2096C33.0043 27.4884 33.0908 31.0058 32.9392 34.2941Z"/>
</svg>
