<svg clip-rule="evenodd" fill-rule="evenodd" stroke-linejoin="round" stroke-miterlimit="2" viewBox="0 0 106 22" xmlns="http://www.w3.org/2000/svg"><g transform="matrix(.71574 0 0 .449791 9.30971 4.50693)"><path d="m-13.007-10.02h147.865v48.039h-147.865z" fill="none"/><g fill-rule="nonzero"><path d="m511.267 197.258c-1.764-5.431-6.457-9.389-12.107-10.209l-158.723-23.065-70.985-143.827c-2.526-5.12-7.741-8.361-13.45-8.361-5.71 0-10.924 3.241-13.451 8.361l-70.988 143.827-158.72 23.065c-5.649.82-10.344 4.778-12.108 10.208-1.765 5.431-.293 11.392 3.796 15.377l114.848 111.954-27.108 158.083c-.966 5.628 1.348 11.314 5.967 14.671 2.613 1.898 5.708 2.864 8.818 2.864 2.388 0 4.784-.569 6.978-1.723l141.967-74.638 141.961 74.637c5.055 2.657 11.178 2.215 15.797-1.141s6.934-9.044 5.969-14.672l-27.117-158.081 114.861-111.955c4.088-3.984 5.561-9.945 3.795-15.375z" transform="matrix(.0457699 0 0 .0728324 -7.72913 -5.23805)"/><path d="m511.267 197.258c-1.764-5.431-6.457-9.389-12.107-10.209l-158.723-23.065-70.985-143.827c-2.526-5.12-7.741-8.361-13.45-8.361-5.71 0-10.924 3.241-13.451 8.361l-70.988 143.827-158.72 23.065c-5.649.82-10.344 4.778-12.108 10.208-1.765 5.431-.293 11.392 3.796 15.377l114.848 111.954-27.108 158.083c-.966 5.628 1.348 11.314 5.967 14.671 2.613 1.898 5.708 2.864 8.818 2.864 2.388 0 4.784-.569 6.978-1.723l141.967-74.638 141.961 74.637c5.055 2.657 11.178 2.215 15.797-1.141s6.934-9.044 5.969-14.672l-27.117-158.081 114.861-111.955c4.088-3.984 5.561-9.945 3.795-15.375z" transform="matrix(.0457699 0 0 .0728324 20.8721 -5.23805)"/><path d="m511.267 197.258c-1.764-5.431-6.457-9.389-12.107-10.209l-158.723-23.065-70.985-143.827c-2.526-5.12-7.741-8.361-13.45-8.361-5.71 0-10.924 3.241-13.451 8.361l-70.988 143.827-158.72 23.065c-5.649.82-10.344 4.778-12.108 10.208-1.765 5.431-.293 11.392 3.796 15.377l114.848 111.954-27.108 158.083c-.966 5.628 1.348 11.314 5.967 14.671 2.613 1.898 5.708 2.864 8.818 2.864 2.388 0 4.784-.569 6.978-1.723l141.967-74.638 141.961 74.637c5.055 2.657 11.178 2.215 15.797-1.141s6.934-9.044 5.969-14.672l-27.117-158.081 114.861-111.955c4.088-3.984 5.561-9.945 3.795-15.375z" transform="matrix(.0457699 0 0 .0728324 49.4733 -5.23805)"/><path d="m511.267 197.258c-1.764-5.431-6.457-9.389-12.107-10.209l-158.723-23.065-70.985-143.827c-2.526-5.12-7.741-8.361-13.45-8.361-5.71 0-10.924 3.241-13.451 8.361l-70.988 143.827-158.72 23.065c-5.649.82-10.344 4.778-12.108 10.208-1.765 5.431-.293 11.392 3.796 15.377l114.848 111.954-27.108 158.083c-.966 5.628 1.348 11.314 5.967 14.671 2.613 1.898 5.708 2.864 8.818 2.864 2.388 0 4.784-.569 6.978-1.723l141.967-74.638 141.961 74.637c5.055 2.657 11.178 2.215 15.797-1.141s6.934-9.044 5.969-14.672l-27.117-158.081 114.861-111.955c4.088-3.984 5.561-9.945 3.795-15.375z" transform="matrix(.0457699 0 0 .0728324 78.0745 -5.23805)"/><path d="m511.267 197.258c-1.764-5.431-6.457-9.389-12.107-10.209l-158.723-23.065-70.985-143.827c-2.526-5.12-7.741-8.361-13.45-8.361-5.71 0-10.924 3.241-13.451 8.361l-70.988 143.827-158.72 23.065c-5.649.82-10.344 4.778-12.108 10.208-1.765 5.431-.293 11.392 3.796 15.377l114.848 111.954-27.108 158.083c-.966 5.628 1.348 11.314 5.967 14.671 2.613 1.898 5.708 2.864 8.818 2.864 2.388 0 4.784-.569 6.978-1.723l141.967-74.638 141.961 74.637c5.055 2.657 11.178 2.215 15.797-1.141s6.934-9.044 5.969-14.672l-27.117-158.081 114.861-111.955c4.088-3.984 5.561-9.945 3.795-15.375z" transform="matrix(.0457699 0 0 .0728324 106.676 -5.23805)"/></g></g></svg>