<svg enable-background="new 0 0 384 384" viewBox="0 0 384 384" xmlns="http://www.w3.org/2000/svg"><path d="m56 208h-40c-8.832 0-16 7.168-16 16s7.168 16 16 16h40c8.832 0 16-7.168 16-16s-7.168-16-16-16z"/><path d="m384 152c0-48.52-39.48-88-88-88s-88 39.48-88 88c0 8.832 7.168 16 16 16s16-7.168 16-16c0-30.88 25.12-56 56-56s56 25.12 56 56-25.12 56-56 56h-48-72-40c-8.832 0-16 7.168-16 16s7.168 16 16 16h40 64c30.88 0 56 25.12 56 56s-25.12 56-56 56-56-25.12-56-56c0-8.832-7.168-16-16-16s-16 7.168-16 16c0 48.52 39.48 88 88 88s88-39.48 88-88c0-21.448-7.736-41.112-20.536-56.4.952-.208 1.88-.488 2.76-.856 41.768-6.84 73.776-43.072 73.776-86.744z"/><path d="m88 0c-48.52 0-88 39.48-88 88 0 8.832 7.168 16 16 16s16-7.168 16-16c0-30.88 25.12-56 56-56s56 25.12 56 56-25.12 56-56 56h-72c-8.832 0-16 7.168-16 16s7.168 16 16 16h72c48.52 0 88-39.48 88-88s-39.48-88-88-88z"/></svg>