<svg width="84" height="84" viewBox="0 0 84 84" fill="none" xmlns="http://www.w3.org/2000/svg">
<path fill-rule="evenodd" clip-rule="evenodd" d="M0.853682 28.5686L2.33333 26.5122C2.33333 26.5122 11.7649 19.1349 15.801 17.046C19.1054 15.3358 22.8966 14.0669 26.5496 13.9791C30.2025 13.8913 34.225 15.3547 37.7189 16.5193C41.1179 17.652 44.4561 19.0878 47.5132 20.9658C50.5745 22.8464 53.5242 25.2392 56.0874 27.8031C58.6506 30.367 61.0465 33.2121 62.8925 36.349C64.7425 39.4928 65.9776 43.1498 67.1874 46.6655C68.3971 50.1813 70.1353 53.9247 70.1511 57.4436C70.167 60.9624 68.9352 64.614 67.2825 67.7784C65.1853 71.7942 59.5225 78.97 57.568 81.5382C57.0428 82.2284 56.0124 82.9643 55.5558 83.1876C55.3207 83.3026 54.9666 83.1022 54.8283 82.8777C54.1056 81.7048 52.6885 78.2301 51.22 76.1501C49.5943 73.8475 47.2903 71.2679 45.0738 69.0615C42.769 66.7672 40.1067 64.4176 37.3912 62.3843C34.5407 60.2499 30.5983 58.8791 27.9716 56.2558C25.3448 53.6325 23.7963 49.5226 21.6305 46.6446C19.5979 43.9433 17.2636 41.2836 14.9775 38.9879C12.7798 36.781 10.178 34.509 7.91457 32.8714C5.8884 31.4054 2.57358 29.8791 1.39677 29.162C1.16793 29.0225 0.853682 28.5686 0.853682 28.5686Z"/>
</svg>
